HIERARCHY
ROOT Hips
{
	OFFSET 0.000000 0.000000 0.000000 
	CHANNELS 6 Xposition Yposition Zposition Yrotation Zrotation Xrotation 
	JOINT Lumbar
	{
		OFFSET 0.000000 0.000000 0.000000 
		CHANNELS 3 Zrotation Xrotation Yrotation
		JOINT Neck
		{
			OFFSET 0.000000 0.445665 0.000000 
			CHANNELS 3 Zrotation Xrotation Yrotation
			End Site
			{
				OFFSET 0.000000 0.227535 0.000000 
			}
		}
		JOINT RightShoulder
		{
			OFFSET 0.019635 0.377685 0.194865 
			CHANNELS 3 Zrotation Xrotation Yrotation
			JOINT RightElbow
			{
				OFFSET 0.000000 -0.243375 0.000000 
				CHANNELS 2 Zrotation Yrotation
				JOINT RightWrist
				{
					OFFSET 0.000000 -0.264825 0.000000 
					CHANNELS 2 Zrotation Xrotation
					End Site
					{
						OFFSET 0.006600 -0.176220 0.000990 
					}
				}
			}
		}
		JOINT LeftShoulder
		{
			OFFSET 0.019635 0.377685 -0.194865 
			CHANNELS 3 Zrotation Xrotation Yrotation
			JOINT LeftElbow
			{
				OFFSET 0.000000 -0.243375 0.000000 
				CHANNELS 2 Zrotation Yrotation
				JOINT LeftWrist
				{
					OFFSET 0.000000 -0.264825 0.000000 
					CHANNELS 2 Zrotation Xrotation
					End Site
					{
						OFFSET 0.006600 -0.176220 -0.000990 
					}
				}
			}
		}
	}
	JOINT RightHip
	{
		OFFSET 0.052140 -0.069960 0.075570 
		CHANNELS 3 Zrotation Xrotation Yrotation
		JOINT RightKnee
		{
			OFFSET 0.000000 -0.402270 0.000000 
			CHANNELS 1 Zrotation
			JOINT RightAnkle
			{
				OFFSET 0.000000 -0.404085 0.000000 
				CHANNELS 3 Zrotation Xrotation Yrotation
				End Site
				{
					OFFSET 0.204105 -0.089430 0.008415 
				}
			}
		}
	}
	JOINT LeftHip
	{
		OFFSET 0.052140 -0.069960 -0.075570 
		CHANNELS 3 Zrotation Xrotation Yrotation
		JOINT LeftKnee
		{
			OFFSET 0.000000 -0.402270 0.000000 
			CHANNELS 1 Zrotation
			JOINT LeftAnkle
			{
				OFFSET 0.000000 -0.404085 0.000000 
				CHANNELS 3 Zrotation Xrotation Yrotation
				End Site
				{
					OFFSET 0.204105 -0.089430 -0.008415 
				}
			}
		}
	}
}
MOTION
Frames: 11
Frame Time: 0.02
-0.0226 -0.00666 0.53229 168.07533 -38.45714 -3.22455 42.94157 1.01485 -1.13724 -5.83745 -0.35046 -0.83079 10.74454 -10.8475 64.17127 112.14981 84.21043 34.60482 -2.13622 -7.27869 7.67584 -62.91049 104.1448 -96.4662 26.56543 1.74369 43.27834 -1.99314 -5.97015 -20.17893 -6.98338 -4.49463 -3.03152 57.53826 13.11191 -8.71278 -33.19246 -14.73707 5.71991 4.19719
-0.01992 -0.00704 0.53031 167.86312 -38.28441 -3.38329 42.88334 1.16654 -0.98056 -5.93582 -0.19252 -0.83079 10.68446 -10.74119 64.17126 112.005 84.19546 34.6897 -2.20047 -7.28044 7.81239 -62.90565 104.15271 -96.5705 26.66174 1.73743 43.33121 -1.76436 -6.2838 -20.35325 -6.93556 -4.43869 -2.99591 57.44185 13.46595 -8.22685 -33.17525 -14.65871 5.69618 4.1769
-0.01783 -0.00778 0.52845 167.59686 -38.0468 -3.67959 42.8311 1.39285 -0.82203 -6.06884 0.02114 -0.83079 10.58671 -10.61298 64.17126 111.80794 84.17667 34.80782 -2.27917 -7.26528 7.95906 -62.89991 104.1163 -96.56201 26.66954 1.74099 43.27944 -1.46777 -6.74279 -20.55009 -6.86666 -4.3697 -2.9508 57.41155 14.09106 -7.89807 -33.16152 -14.64207 5.65317 4.1488
-0.01548 -0.00834 0.52654 167.36042 -37.84112 -3.90674 42.77737 1.57933 -0.66396 -6.18288 0.20663 -0.83079 10.50751 -10.49279 64.17126 111.63581 84.15819 34.90505 -2.35249 -7.25836 8.10228 -62.89464 104.10516 -96.60555 26.71711 1.73996 43.27724 -1.20424 -7.11545 -20.73561 -6.80921 -4.30931 -2.91171 57.35056 14.58056 -7.5017 -33.14898 -14.59864 5.61981 4.12487
-0.0131 -0.00898 0.52463 167.10046 -37.62369 -4.1625 42.7183 1.79072 -0.50374 -6.31102 0.40533 -0.83079 10.42279 -10.37967 64.17125 111.45819 84.14507 35.02615 -2.42179 -7.24952 8.24193 -62.8891 104.07463 -96.64783 26.76726 1.73941 43.26465 -0.93006 -7.56205 -20.92514 -6.74492 -4.2387 -2.86615 57.2918 15.12273 -7.08215 -33.1275 -14.5506 5.58278 4.09838
-0.01092 -0.00955 0.52275 166.87746 -37.41609 -4.39104 42.672 1.96819 -0.34906 -6.41755 0.58902 -0.83079 10.3409 -10.24795 64.17125 111.28046 84.12037 35.10595 -2.50215 -7.24014 8.39 -62.88396 104.07233 -96.66521 26.79117 1.74024 43.24931 -0.66315 -7.89594 -21.11146 -6.68937 -4.1856 -2.83138 57.24451 15.61923 -6.75122 -33.12426 -14.52651 5.54876 4.07534
-0.00909 -0.00985 0.52092 166.76623 -37.24894 -4.5115 42.65724 2.03104 -0.20975 -6.45972 0.72091 -0.83079 10.27013 -10.05869 64.17125 111.1068 84.06168 35.05972 -2.6143 -7.23753 8.57068 -62.87967 104.16844 -96.64103 26.75882 1.74223 43.25514 -0.42361 -7.8538 -21.28872 -6.66435 -4.18775 -2.83064 57.21003 15.92641 -6.62257 -33.17224 -14.55421 5.52793 4.06376
-0.00744 -0.01009 0.51913 166.6949 -37.0946 -4.59962 42.65552 2.05765 -0.07684 -6.4783 0.83503 -0.83079 10.20436 -9.85345 64.17125 110.93623 83.99204 34.97145 -2.73615 -7.23391 8.75751 -62.87609 104.29258 -96.59544 26.70362 1.7453 43.26157 -0.19535 -7.69925 -21.46113 -6.64855 -4.2073 -2.84069 57.18541 16.17775 -6.57934 -33.23777 -14.60369 5.51077 4.05589
-0.00574 -0.01036 0.51735 166.60767 -36.93617 -4.70195 42.6493 2.10261 0.05842 -6.50506 0.955 -0.83079 10.14017 -9.66333 64.17125 110.7699 83.92941 34.90512 -2.85034 -7.22839 8.9334 -62.8722 104.39727 -96.5597 26.66279 1.74804 43.26592 0.03178 -7.61757 -21.6325 -6.62752 -4.21624 -2.84439 57.15798 16.45259 -6.50061 -33.29378 -14.64259 5.49184 4.04629
-0.00395 -0.01062 0.51545 166.50889 -36.76795 -4.81108 42.63728 2.1423 0.19682 -6.54339 1.08632 -0.83079 10.05885 -9.44 64.17125 110.57847 83.85815 34.82839 -2.97872 -7.23338 9.14299 -62.86736 104.52841 -96.51977 26.60362 1.75053 43.27407 0.28711 -7.45181 -21.81842 -6.60994 -4.23571 -2.85368 57.12553 16.74466 -6.41336 -33.35648 -14.68644 5.47268 4.03663
-0.00237 -0.01088 0.51381 166.44461 -36.62423 -4.89664 42.64037 2.18334 0.32632 -6.55202 1.18908 -0.83079 10.01434 -9.28141 64.17125 110.44005 83.80223 34.76238 -3.07973 -7.21504 9.28504 -62.86575 104.61213 -96.4847 26.57644 1.75357 43.276 0.48088 -7.42885 -21.97247 -6.5879 -4.23807 -2.85428 57.10536 16.98425 -6.36192 -33.40936 -14.72445 5.45509 4.02805
